<mxfile host="app.diagrams.net" modified="2024-06-24T19:09:04.979Z" agent="Mozilla/5.0 (Windows NT 10.0; Win64; x64) AppleWebKit/537.36 (KHTML, like Gecko) Chrome/126.0.0.0 Safari/537.36" etag="BaKLCEpjRNmYyBhzBnaw" version="24.6.2" type="device">
  <diagram name="Страница — 1" id="6_kf7a4UJlBJ0kwGdQS4">
    <mxGraphModel dx="1050" dy="625" grid="1" gridSize="10" guides="1" tooltips="1" connect="1" arrows="1" fold="1" page="1" pageScale="1" pageWidth="827" pageHeight="1169" math="0" shadow="0">
      <root>
        <mxCell id="0" />
        <mxCell id="1" parent="0" />
        <mxCell id="TMD0wSkBmeW8nhcPqqG2-1" value="Пользователь" style="shape=umlActor;verticalLabelPosition=bottom;verticalAlign=top;html=1;outlineConnect=0;" vertex="1" parent="1">
          <mxGeometry x="40" y="120" width="80" height="80" as="geometry" />
        </mxCell>
        <mxCell id="TMD0wSkBmeW8nhcPqqG2-3" value="Получение информации о коллегах&amp;nbsp;" style="ellipse;whiteSpace=wrap;html=1;" vertex="1" parent="1">
          <mxGeometry x="270" y="40" width="120" height="80" as="geometry" />
        </mxCell>
        <mxCell id="TMD0wSkBmeW8nhcPqqG2-4" value="" style="endArrow=none;html=1;rounded=0;" edge="1" parent="1" source="TMD0wSkBmeW8nhcPqqG2-1" target="TMD0wSkBmeW8nhcPqqG2-3">
          <mxGeometry width="50" height="50" relative="1" as="geometry">
            <mxPoint x="180" y="190" as="sourcePoint" />
            <mxPoint x="230" y="140" as="targetPoint" />
          </mxGeometry>
        </mxCell>
        <mxCell id="TMD0wSkBmeW8nhcPqqG2-5" value="Получение информации о назначенных задачах" style="ellipse;whiteSpace=wrap;html=1;" vertex="1" parent="1">
          <mxGeometry x="270" y="140" width="120" height="80" as="geometry" />
        </mxCell>
        <mxCell id="TMD0wSkBmeW8nhcPqqG2-6" value="" style="endArrow=none;html=1;rounded=0;" edge="1" parent="1" source="TMD0wSkBmeW8nhcPqqG2-1" target="TMD0wSkBmeW8nhcPqqG2-5">
          <mxGeometry width="50" height="50" relative="1" as="geometry">
            <mxPoint x="190" y="240" as="sourcePoint" />
            <mxPoint x="240" y="190" as="targetPoint" />
          </mxGeometry>
        </mxCell>
        <mxCell id="TMD0wSkBmeW8nhcPqqG2-7" value="" style="endArrow=none;html=1;rounded=0;entryX=0;entryY=0.5;entryDx=0;entryDy=0;" edge="1" parent="1" source="TMD0wSkBmeW8nhcPqqG2-1" target="TMD0wSkBmeW8nhcPqqG2-8">
          <mxGeometry width="50" height="50" relative="1" as="geometry">
            <mxPoint x="200" y="280" as="sourcePoint" />
            <mxPoint x="250" y="230" as="targetPoint" />
          </mxGeometry>
        </mxCell>
        <mxCell id="TMD0wSkBmeW8nhcPqqG2-8" value="Получить информацию о отпусках" style="ellipse;whiteSpace=wrap;html=1;" vertex="1" parent="1">
          <mxGeometry x="270" y="240" width="120" height="80" as="geometry" />
        </mxCell>
        <mxCell id="TMD0wSkBmeW8nhcPqqG2-9" value="Забронировать отпуск" style="ellipse;whiteSpace=wrap;html=1;" vertex="1" parent="1">
          <mxGeometry x="530" y="250" width="120" height="80" as="geometry" />
        </mxCell>
        <mxCell id="TMD0wSkBmeW8nhcPqqG2-11" value="&amp;lt;&amp;lt;include&amp;gt;&amp;gt;" style="html=1;verticalAlign=bottom;labelBackgroundColor=none;endArrow=open;endFill=0;dashed=1;rounded=0;exitX=0.987;exitY=0.385;exitDx=0;exitDy=0;exitPerimeter=0;entryX=0;entryY=0.5;entryDx=0;entryDy=0;" edge="1" parent="1" source="TMD0wSkBmeW8nhcPqqG2-8" target="TMD0wSkBmeW8nhcPqqG2-9">
          <mxGeometry width="160" relative="1" as="geometry">
            <mxPoint x="400" y="290" as="sourcePoint" />
            <mxPoint x="560" y="290" as="targetPoint" />
          </mxGeometry>
        </mxCell>
        <mxCell id="TMD0wSkBmeW8nhcPqqG2-12" value="&amp;lt;&amp;lt;include&amp;gt;&amp;gt;" style="html=1;verticalAlign=bottom;labelBackgroundColor=none;endArrow=open;endFill=0;dashed=1;rounded=0;entryX=0;entryY=0.5;entryDx=0;entryDy=0;" edge="1" parent="1" source="TMD0wSkBmeW8nhcPqqG2-3" target="TMD0wSkBmeW8nhcPqqG2-13">
          <mxGeometry width="160" relative="1" as="geometry">
            <mxPoint x="430" y="60" as="sourcePoint" />
            <mxPoint x="520" y="80" as="targetPoint" />
          </mxGeometry>
        </mxCell>
        <mxCell id="TMD0wSkBmeW8nhcPqqG2-13" value="Добавить уведомление о дне рождения" style="ellipse;whiteSpace=wrap;html=1;" vertex="1" parent="1">
          <mxGeometry x="520" y="40" width="120" height="80" as="geometry" />
        </mxCell>
        <mxCell id="TMD0wSkBmeW8nhcPqqG2-14" value="Изменить статус задачи" style="ellipse;whiteSpace=wrap;html=1;" vertex="1" parent="1">
          <mxGeometry x="530" y="150" width="120" height="80" as="geometry" />
        </mxCell>
        <mxCell id="TMD0wSkBmeW8nhcPqqG2-15" value="&amp;lt;&amp;lt;include&amp;gt;&amp;gt;" style="html=1;verticalAlign=bottom;labelBackgroundColor=none;endArrow=open;endFill=0;dashed=1;rounded=0;entryX=0;entryY=0.5;entryDx=0;entryDy=0;" edge="1" parent="1" source="TMD0wSkBmeW8nhcPqqG2-5" target="TMD0wSkBmeW8nhcPqqG2-14">
          <mxGeometry width="160" relative="1" as="geometry">
            <mxPoint x="420" y="180" as="sourcePoint" />
            <mxPoint x="580" y="180" as="targetPoint" />
          </mxGeometry>
        </mxCell>
        <mxCell id="TMD0wSkBmeW8nhcPqqG2-16" value="Получить информацию о доступных днях для бронирования" style="ellipse;whiteSpace=wrap;html=1;" vertex="1" parent="1">
          <mxGeometry x="520" y="350" width="120" height="80" as="geometry" />
        </mxCell>
        <mxCell id="TMD0wSkBmeW8nhcPqqG2-17" value="&amp;lt;&amp;lt;extend&amp;gt;&amp;gt;" style="html=1;verticalAlign=bottom;labelBackgroundColor=none;endArrow=open;endFill=0;dashed=1;rounded=0;" edge="1" parent="1" source="TMD0wSkBmeW8nhcPqqG2-16" target="TMD0wSkBmeW8nhcPqqG2-8">
          <mxGeometry width="160" relative="1" as="geometry">
            <mxPoint x="370" y="460" as="sourcePoint" />
            <mxPoint x="530" y="460" as="targetPoint" />
          </mxGeometry>
        </mxCell>
        <mxCell id="TMD0wSkBmeW8nhcPqqG2-18" value="Забронировать отпуск" style="ellipse;whiteSpace=wrap;html=1;" vertex="1" parent="1">
          <mxGeometry x="260" y="340" width="120" height="80" as="geometry" />
        </mxCell>
        <mxCell id="TMD0wSkBmeW8nhcPqqG2-19" value="" style="endArrow=none;html=1;rounded=0;entryX=0.003;entryY=0.39;entryDx=0;entryDy=0;entryPerimeter=0;" edge="1" parent="1" source="TMD0wSkBmeW8nhcPqqG2-1" target="TMD0wSkBmeW8nhcPqqG2-18">
          <mxGeometry width="50" height="50" relative="1" as="geometry">
            <mxPoint x="180" y="330" as="sourcePoint" />
            <mxPoint x="230" y="280" as="targetPoint" />
          </mxGeometry>
        </mxCell>
        <mxCell id="TMD0wSkBmeW8nhcPqqG2-23" value="" style="endArrow=none;dashed=1;html=1;dashPattern=1 3;strokeWidth=2;rounded=0;entryX=0;entryY=0;entryDx=0;entryDy=0;entryPerimeter=0;" edge="1" parent="1" source="TMD0wSkBmeW8nhcPqqG2-18" target="TMD0wSkBmeW8nhcPqqG2-24">
          <mxGeometry width="50" height="50" relative="1" as="geometry">
            <mxPoint x="330" y="540" as="sourcePoint" />
            <mxPoint x="430" y="490" as="targetPoint" />
          </mxGeometry>
        </mxCell>
        <mxCell id="TMD0wSkBmeW8nhcPqqG2-24" value="Бронирование доступно при условии что у сотрудника достаточно доступных дней" style="shape=note;size=20;whiteSpace=wrap;html=1;" vertex="1" parent="1">
          <mxGeometry x="430" y="480" width="170" height="100" as="geometry" />
        </mxCell>
        <mxCell id="TMD0wSkBmeW8nhcPqqG2-25" value="Доступность обусловлена количеством сотрудников команды которые уже забронировали отпуск на эти даты&amp;nbsp;" style="shape=note;size=20;whiteSpace=wrap;html=1;" vertex="1" parent="1">
          <mxGeometry x="700" y="350" width="120" height="140" as="geometry" />
        </mxCell>
        <mxCell id="TMD0wSkBmeW8nhcPqqG2-26" value="" style="endArrow=none;dashed=1;html=1;dashPattern=1 3;strokeWidth=2;rounded=0;exitX=0.977;exitY=0.39;exitDx=0;exitDy=0;exitPerimeter=0;entryX=-0.012;entryY=0.344;entryDx=0;entryDy=0;entryPerimeter=0;" edge="1" parent="1" source="TMD0wSkBmeW8nhcPqqG2-16" target="TMD0wSkBmeW8nhcPqqG2-25">
          <mxGeometry width="50" height="50" relative="1" as="geometry">
            <mxPoint x="670" y="530" as="sourcePoint" />
            <mxPoint x="720" y="480" as="targetPoint" />
          </mxGeometry>
        </mxCell>
        <mxCell id="TMD0wSkBmeW8nhcPqqG2-27" value="После бронирования его необходимо подтвердить руководителю в рамках системы отпусков&amp;nbsp;" style="shape=note;size=20;whiteSpace=wrap;html=1;" vertex="1" parent="1">
          <mxGeometry x="690" y="240" width="100" height="100" as="geometry" />
        </mxCell>
        <mxCell id="TMD0wSkBmeW8nhcPqqG2-28" value="" style="endArrow=none;dashed=1;html=1;dashPattern=1 3;strokeWidth=2;rounded=0;exitX=1;exitY=0.5;exitDx=0;exitDy=0;" edge="1" parent="1" source="TMD0wSkBmeW8nhcPqqG2-9" target="TMD0wSkBmeW8nhcPqqG2-27">
          <mxGeometry width="50" height="50" relative="1" as="geometry">
            <mxPoint x="710" y="190" as="sourcePoint" />
            <mxPoint x="760" y="140" as="targetPoint" />
          </mxGeometry>
        </mxCell>
        <mxCell id="TMD0wSkBmeW8nhcPqqG2-29" value="После изменения статуса он отражается в система трекинга задач" style="shape=note;size=20;whiteSpace=wrap;html=1;" vertex="1" parent="1">
          <mxGeometry x="690" y="130" width="100" height="100" as="geometry" />
        </mxCell>
        <mxCell id="TMD0wSkBmeW8nhcPqqG2-30" value="" style="endArrow=none;dashed=1;html=1;dashPattern=1 3;strokeWidth=2;rounded=0;exitX=1;exitY=0.5;exitDx=0;exitDy=0;" edge="1" parent="1" source="TMD0wSkBmeW8nhcPqqG2-14" target="TMD0wSkBmeW8nhcPqqG2-29">
          <mxGeometry width="50" height="50" relative="1" as="geometry">
            <mxPoint x="710" y="80" as="sourcePoint" />
            <mxPoint x="760" y="30" as="targetPoint" />
          </mxGeometry>
        </mxCell>
        <mxCell id="TMD0wSkBmeW8nhcPqqG2-31" value="Уведомления приходят от бота в этот же чат в telegram" style="shape=note;size=20;whiteSpace=wrap;html=1;" vertex="1" parent="1">
          <mxGeometry x="680" y="20" width="100" height="100" as="geometry" />
        </mxCell>
        <mxCell id="TMD0wSkBmeW8nhcPqqG2-32" value="" style="endArrow=none;dashed=1;html=1;dashPattern=1 3;strokeWidth=2;rounded=0;exitX=1.017;exitY=0.425;exitDx=0;exitDy=0;exitPerimeter=0;" edge="1" parent="1" source="TMD0wSkBmeW8nhcPqqG2-13" target="TMD0wSkBmeW8nhcPqqG2-31">
          <mxGeometry width="50" height="50" relative="1" as="geometry">
            <mxPoint x="630" y="60" as="sourcePoint" />
            <mxPoint x="680" y="10" as="targetPoint" />
          </mxGeometry>
        </mxCell>
      </root>
    </mxGraphModel>
  </diagram>
</mxfile>
